<svg version="1.1" id="Layer_1" xmlns="http://www.w3.org/2000/svg" xmlns:xlink="http://www.w3.org/1999/xlink" x="0px" y="0px"
	 width="100%" viewBox="0 0 200 200" enable-background="new 0 0 200 200" xml:space="preserve">
<path fill="#6E2EF4" opacity="1.000000" stroke="none" 
	d="
M201.000000,81.000000 
	C201.000000,94.020897 201.000000,107.041786 200.699310,120.191978 
	C199.945679,120.972832 199.237411,121.567650 199.078110,122.284470 
	C196.698212,132.993744 192.956833,143.098328 187.207153,152.542099 
	C180.039673,164.314621 171.187378,174.412933 160.009903,182.479996 
	C148.780228,190.584763 136.365463,195.995102 122.883133,199.070145 
	C122.146988,199.238022 121.622826,200.335312 121.000000,201.000000 
	C107.979103,201.000000 94.958214,201.000000 81.803108,200.694641 
	C81.014801,199.939407 80.416878,199.237823 79.698189,199.077454 
	C68.998512,196.689987 58.880215,192.985901 49.464619,187.200821 
	C37.883369,180.085129 27.833286,171.462097 19.840239,160.392487 
	C11.624262,149.014175 6.051627,136.527710 2.930108,122.879883 
	C2.761926,122.144569 1.664730,121.621742 0.999998,121.000000 
	C1.000000,107.979103 1.000000,94.958214 1.300712,81.807991 
	C2.054321,81.027107 2.762509,80.432297 2.921811,79.715492 
	C5.301744,69.006653 9.042539,58.902225 14.792036,49.458778 
	C21.959455,37.686417 30.811501,27.588064 41.988663,19.520798 
	C53.218727,11.415351 65.634705,6.006310 79.117088,2.929933 
	C79.853188,2.761972 80.377243,1.664696 81.000000,1.000000 
	C94.020897,1.000000 107.041786,1.000000 120.196930,1.305405 
	C120.985283,2.060687 121.583214,2.762297 122.301910,2.922666 
	C133.001419,5.310110 143.119843,9.013202 152.535263,14.798689 
	C164.116165,21.914793 174.166351,30.537491 182.159409,41.606987 
	C190.375397,52.985222 195.947876,65.471649 199.069809,79.119255 
	C199.238083,79.854858 200.335251,80.377975 201.000000,81.000000 
M66.498726,100.010780 
	C78.844688,87.666222 91.262817,75.392647 103.504349,62.945389 
	C109.122978,57.232349 109.022812,48.665936 103.670952,43.179497 
	C98.300232,37.673714 89.722565,37.359303 83.952271,43.008743 
	C70.527443,56.152382 57.299843,69.498489 44.069271,82.838860 
	C40.269882,86.669777 39.143631,91.311165 40.617668,96.608940 
	C43.511375,107.009102 57.600975,110.952080 66.498726,100.010780 
M118.191498,158.843246 
	C131.529480,145.548141 144.913620,132.298889 158.185135,118.937744 
	C164.416519,112.664276 164.612091,104.238548 158.929474,98.439056 
	C153.193451,92.585075 144.577988,92.957436 138.049438,99.454735 
	C125.527428,111.916824 113.041321,124.415108 100.571136,136.929092 
	C94.427185,143.094604 93.629494,150.526520 98.352264,156.678635 
	C102.841187,162.526138 109.843338,163.480057 118.191498,158.843246 
M87.295265,94.852165 
	C81.059044,102.063408 80.970787,109.953094 87.062630,115.649017 
	C93.063057,121.259460 101.120697,120.624405 107.864761,113.974159 
	C110.824821,111.055290 113.871002,108.206612 116.632545,105.107285 
	C121.850929,99.250641 121.650261,91.106003 116.358162,85.756287 
	C110.890427,80.229019 102.646927,80.082481 96.657196,85.561218 
	C93.592346,88.364601 90.748474,91.409554 87.295265,94.852165 
z"/>
<path fill="#000000" opacity="1.000000" stroke="none" 
	d="
M80.531342,1.000000 
	C80.377243,1.664696 79.853188,2.761972 79.117088,2.929933 
	C65.634705,6.006310 53.218727,11.415351 41.988663,19.520798 
	C30.811501,27.588064 21.959455,37.686417 14.792036,49.458778 
	C9.042539,58.902225 5.301744,69.006653 2.921811,79.715492 
	C2.762509,80.432297 2.054321,81.027107 1.300712,81.339333 
	C1.000000,54.406445 1.000000,27.812887 1.000000,1.000000 
	C27.353823,1.000000 53.708252,1.000000 80.531342,1.000000 
z"/>
<path fill="#000000" opacity="1.000000" stroke="none" 
	d="
M201.000000,80.531342 
	C200.335251,80.377975 199.238083,79.854858 199.069809,79.119255 
	C195.947876,65.471649 190.375397,52.985222 182.159409,41.606987 
	C174.166351,30.537491 164.116165,21.914793 152.535263,14.798689 
	C143.119843,9.013202 133.001419,5.310110 122.301910,2.922666 
	C121.583214,2.762297 120.985283,2.060687 120.665588,1.305405 
	C147.593552,1.000000 174.187103,1.000000 201.000000,1.000000 
	C201.000000,27.353823 201.000000,53.708252 201.000000,80.531342 
z"/>
<path fill="#000000" opacity="1.000000" stroke="none" 
	d="
M0.999998,121.468658 
	C1.664730,121.621742 2.761926,122.144569 2.930108,122.879883 
	C6.051627,136.527710 11.624262,149.014175 19.840239,160.392487 
	C27.833286,171.462097 37.883369,180.085129 49.464619,187.200821 
	C58.880215,192.985901 68.998512,196.689987 79.698189,199.077454 
	C80.416878,199.237823 81.014801,199.939407 81.334450,200.694641 
	C54.406445,201.000000 27.812887,201.000000 1.000000,201.000000 
	C1.000000,174.646179 1.000000,148.291748 0.999998,121.468658 
z"/>
<path fill="#000000" opacity="1.000000" stroke="none" 
	d="
M121.468658,201.000000 
	C121.622826,200.335312 122.146988,199.238022 122.883133,199.070145 
	C136.365463,195.995102 148.780228,190.584763 160.009903,182.479996 
	C171.187378,174.412933 180.039673,164.314621 187.207153,152.542099 
	C192.956833,143.098328 196.698212,132.993744 199.078110,122.284470 
	C199.237411,121.567650 199.945679,120.972832 200.699310,120.660637 
	C201.000000,147.593552 201.000000,174.187119 201.000000,201.000000 
	C174.646179,201.000000 148.291748,201.000000 121.468658,201.000000 
z"/>
<path fill="#FDFCFF" opacity="1.000000" stroke="none" 
	d="
M66.247650,100.263412 
	C57.600975,110.952080 43.511375,107.009102 40.617668,96.608940 
	C39.143631,91.311165 40.269882,86.669777 44.069271,82.838860 
	C57.299843,69.498489 70.527443,56.152382 83.952271,43.008743 
	C89.722565,37.359303 98.300232,37.673714 103.670952,43.179497 
	C109.022812,48.665936 109.122978,57.232349 103.504349,62.945389 
	C91.262817,75.392647 78.844688,87.666222 66.247650,100.263412 
z"/>
<path fill="#FDFCFF" opacity="1.000000" stroke="none" 
	d="
M117.899483,159.072510 
	C109.843338,163.480057 102.841187,162.526138 98.352264,156.678635 
	C93.629494,150.526520 94.427185,143.094604 100.571136,136.929092 
	C113.041321,124.415108 125.527428,111.916824 138.049438,99.454735 
	C144.577988,92.957436 153.193451,92.585075 158.929474,98.439056 
	C164.612091,104.238548 164.416519,112.664276 158.185135,118.937744 
	C144.913620,132.298889 131.529480,145.548141 117.899483,159.072510 
z"/>
<path fill="#FEFDFF" opacity="1.000000" stroke="none" 
	d="
M87.549995,94.598747 
	C90.748474,91.409554 93.592346,88.364601 96.657196,85.561218 
	C102.646927,80.082481 110.890427,80.229019 116.358162,85.756287 
	C121.650261,91.106003 121.850929,99.250641 116.632545,105.107285 
	C113.871002,108.206612 110.824821,111.055290 107.864761,113.974159 
	C101.120697,120.624405 93.063057,121.259460 87.062630,115.649017 
	C80.970787,109.953094 81.059044,102.063408 87.549995,94.598747 
z"/>
</svg>