<svg id="Layer_1" xmlns="http://www.w3.org/2000/svg" viewBox="0 0 214.7 279.1" width="1923" height="2500"><style>.st0{fill:#169bb3}</style><g id="_x23_169bb3ff"><path class="st0" d="M0 7.5c-.6-5.8 7.1-9.8 11.5-6 8.7 7.9 16.4 16.9 25 25 4.4-3.2 8.5-6.8 13.2-9.7C68.2 5 90.5-1 112.5.2c26.1 1.4 51.6 12.7 70 31.4 19.5 19.4 30.9 46.5 31.4 74-.1 34.7.1 69.4-.1 104.1-.1 5.5-7.5 8.7-11.6 5.1-8.8-7.8-16.3-16.9-24.9-24.9-14.8 12.5-32.8 21.7-52 24.8-17.8 3.2-36.5 1.7-53.6-4.3-21.7-7.7-40.7-22.6-53.4-41.7C7.2 152.1.8 132.5 0 112.6V7.5m89.2 8.9c-15.4 3.3-30.6 9.9-42 20.9 39.8 40 79.3 80.3 119.1 120.3 11.1 10.8 21.5 22.2 32.7 32.9 0-30 .1-60 0-90-1.7-22.3-11.8-44-28-59.6-14.8-14.7-34.9-23.9-55.6-26-8.7-.2-17.6-.5-26.2 1.5m-74.3 9.3c-.2 27 0 53.9-.1 80.9-1.1 29.1 13.1 57.9 36 75.7 16 12.5 36.3 19.6 56.7 19.2 21.6.2 43-8.1 59.3-22.2-19.2-20.1-39.3-39.4-58.6-59.5C77.1 88.4 46 57 14.9 25.7zM4.8 189c2.6-.4 5.7-.6 7.6 1.6 2.2 2 2.4 5.2 2.4 8-.1 11.1 0 22.1 0 33.1 0 2.7-.4 5.8-2.6 7.7-3.1 2.9-8.8 2.2-11.1-1.5-1.2-1.8-1-4.1-1.1-6.2.1-12 0-24.1.1-36.1-.1-3 2-5.8 4.7-6.6zM204.9 224c4.1-1.5 9.3 1.1 9.7 5.6.4 7.3 0 14.6.2 21.9-.1 2.8.4 5.8-.9 8.3-2.4 4.7-10.3 4.7-12.8 0-1.5-2.9-1-6.3-1.1-9.4.2-6.7-.2-13.4.1-20 .1-2.7 2-5.5 4.8-6.4zM104 227.2c3-.8 7-1 9 1.8 1.9 2.4 1.8 5.6 1.8 8.5-.1 11.4.1 22.8-.1 34.1-.1 3.8-3.3 7.7-7.3 7.4-4 .3-7.5-3.5-7.4-7.4-.1-12.4 0-24.8 0-37.2-.2-2.8 1.4-5.8 4-7.2z"/></g></svg>